<svg id="Layer_1" data-name="Layer 1" xmlns="http://www.w3.org/2000/svg" xmlns:xlink="http://www.w3.org/1999/xlink" viewBox="0 0 400 400"><defs><style>.cls-1{fill:none;}.cls-2{clip-path:url(#clip-path);}.cls-3{clip-path:url(#clip-path-2);}.cls-4{fill:#fff;}.cls-5{clip-path:url(#clip-path-3);}.cls-6{clip-path:url(#clip-path-4);}.cls-7{clip-path:url(#clip-path-5);}.cls-8{clip-path:url(#clip-path-6);}.cls-9{clip-path:url(#clip-path-7);}.cls-10{clip-path:url(#clip-path-8);}.cls-11{clip-path:url(#clip-path-9);}.cls-12{clip-path:url(#clip-path-10);}</style><clipPath id="clip-path"><path class="cls-1" d="M227.13-322.83c0-14.32,9.44-17.66,16.14-17.66h40.84v-62.87l-56.32-.26c-62.5,0-76.84,47-76.84,77.12v41.79H115V-220h36.12V-36.37h76V-220h51.23L285-284.64H227.13Z"/></clipPath><clipPath id="clip-path-2"><rect class="cls-1" x="-16462" y="-9632.87" width="22993.27" height="12774.04"/></clipPath><clipPath id="clip-path-3"><path class="cls-1" d="M797.38-364.8a153.75,153.75,0,0,1-49,18.38,78,78,0,0,0-92.57-14.82,75.58,75.58,0,0,0-38.72,84.12,220,220,0,0,1-158.81-79.3,75.22,75.22,0,0,0,23.89,101.28,77,77,0,0,1-34.9-9.45,4.82,4.82,0,0,0,0,1c0,36.08,25.84,67.15,61.75,74.33a77.29,77.29,0,0,1-20.2,2.76,75.14,75.14,0,0,1-14.48-1.36c10.12,30.84,39,52,71.9,52.61A156.65,156.65,0,0,1,432.1-103.86,220,220,0,0,0,550.25-69.75c141.86,0,219.28-115.62,219.28-215.86v-9.85a155.49,155.49,0,0,0,38.38-39.22,154.57,154.57,0,0,1-44.24,11.91A76.42,76.42,0,0,0,797.38-364.8Z"/></clipPath><clipPath id="clip-path-4"><rect class="cls-1" x="-16737.51" y="-9572.36" width="22846.46" height="12692.48"/></clipPath><clipPath id="clip-path-5"><path class="cls-1" d="M173.89,258.06c-9.94,49.59-22,97.1-57.88,121.94-11-74.93,16.25-131.27,29-191-21.64-34.71,2.6-104.65,48.25-87.51,56.16,21.19-48.63,129.16,21.72,142.65,73.44,14.08,103.46-121.57,57.88-165.66C207,14.89,81.25,77.13,96.7,168.51c3.82,22.28,27.91,29.17,9.63,59.84-42.06-8.9-54.67-40.58-53.07-82.85C55.9,76.22,118.26,28,181.11,21.27,260.48,12.59,334.88,48.83,345.17,120c11.47,80.22-35.79,167.33-120.62,161.06C201.61,279.36,191.89,268.49,173.89,258.06Z"/></clipPath><clipPath id="clip-path-6"><rect class="cls-1" x="-15409.76" y="-9052.94" width="22601.38" height="12556.32"/></clipPath><clipPath id="clip-path-7"><path class="cls-1" d="M709.25,114a118.58,118.58,0,0,0-71.4,24.55V114H566.58V370.71h71.27V212S645,180.3,681.91,180.3c22.1,0,27.31,13.08,27.31,31.68V370.71h71.2V214.13C780.42,128.3,732.48,114,709.25,114Z"/></clipPath><clipPath id="clip-path-8"><path class="cls-1" d="M497.53,29.29a33.51,33.51,0,0,0-31,21.26,35.22,35.22,0,0,0,7.27,37.62,32.82,32.82,0,0,0,36.56,7.44A34.51,34.51,0,0,0,531,63.67C531,44.68,516,29.29,497.53,29.29Z"/></clipPath><clipPath id="clip-path-9"><rect class="cls-1" x="-17963.24" y="-9367.84" width="23411.53" height="13006.41"/></clipPath><clipPath id="clip-path-10"><rect class="cls-1" x="459.58" y="113.83" width="71.4" height="256.88"/></clipPath></defs><title>pinterest</title><g class="cls-2"><g class="cls-3"><rect class="cls-4" x="35.14" y="-483.46" width="329.72" height="526.93"/></g></g><g class="cls-5"><g class="cls-6"><rect class="cls-4" x="352.77" y="-449.58" width="534.47" height="459.16"/></g></g><g class="cls-7"><g class="cls-8"><rect class="cls-4" x="-25.35" y="-58.48" width="450.69" height="516.95"/></g></g><g class="cls-10"><g class="cls-11"><rect class="cls-4" x="382.67" y="-52" width="229.6" height="231.55"/></g></g><g class="cls-12"><g class="cls-11"><rect class="cls-4" x="378.29" y="32.54" width="233.98" height="419.46"/></g></g></svg>