<svg id="Layer_1" data-name="Layer 1" xmlns="http://www.w3.org/2000/svg" xmlns:xlink="http://www.w3.org/1999/xlink" viewBox="0 0 400 400"><defs><style>.cls-1{fill:none;}.cls-2{clip-path:url(#clip-path);}.cls-3{clip-path:url(#clip-path-2);}.cls-4{clip-path:url(#clip-path-3);}.cls-5{fill:#fff;}.cls-6{clip-path:url(#clip-path-4);}.cls-7{clip-path:url(#clip-path-5);}.cls-8{clip-path:url(#clip-path-6);}.cls-9{clip-path:url(#clip-path-7);}.cls-10{clip-path:url(#clip-path-8);}.cls-11{clip-path:url(#clip-path-9);}</style><clipPath id="clip-path"><path class="cls-1" d="M-192.87,97.17c0-14.32,9.44-17.66,16.14-17.66h40.84V16.63l-56.32-.26c-62.5,0-76.84,47-76.84,77.12v41.79h-36V200h36.12V383.63h76V200h51.23l6.66-64.64h-57.89Z"/></clipPath><clipPath id="clip-path-2"><path class="cls-1" d="M377.38,55.2a153.75,153.75,0,0,1-49,18.38,78,78,0,0,0-92.57-14.82,75.58,75.58,0,0,0-38.72,84.12A220,220,0,0,1,38.26,63.58,75.22,75.22,0,0,0,62.16,164.86a77,77,0,0,1-34.9-9.45,4.82,4.82,0,0,0,0,1c0,36.08,25.84,67.15,61.75,74.33a77.29,77.29,0,0,1-20.2,2.76,75.14,75.14,0,0,1-14.48-1.36c10.12,30.84,39,52,71.9,52.61A156.65,156.65,0,0,1,12.1,316.14a220,220,0,0,0,118.15,34.11c141.86,0,219.28-115.62,219.28-215.86v-9.85A155.49,155.49,0,0,0,387.9,85.31a154.57,154.57,0,0,1-44.24,11.91A76.42,76.42,0,0,0,377.38,55.2Z"/></clipPath><clipPath id="clip-path-3"><rect class="cls-1" x="-17157.51" y="-9152.36" width="22846.46" height="12692.48"/></clipPath><clipPath id="clip-path-4"><path class="cls-1" d="M-246.11,678.06c-9.94,49.59-22,97.1-57.88,121.94-11-74.93,16.25-131.27,29-191-21.64-34.71,2.6-104.65,48.25-87.51,56.16,21.19-48.63,129.16,21.72,142.65,73.44,14.08,103.46-121.57,57.88-165.66-65.87-63.63-191.58-1.39-176.14,90,3.82,22.28,27.91,29.17,9.63,59.84-42.06-8.9-54.67-40.58-53.07-82.85,2.64-69.28,65-117.52,127.85-124.23,79.37-8.68,153.77,27.57,164.06,98.74,11.47,80.22-35.79,167.33-120.62,161.06C-218.39,699.36-228.11,688.49-246.11,678.06Z"/></clipPath><clipPath id="clip-path-5"><rect class="cls-1" x="-15829.76" y="-8632.94" width="22601.38" height="12556.32"/></clipPath><clipPath id="clip-path-6"><path class="cls-1" d="M289.25,534a118.58,118.58,0,0,0-71.4,24.55V534H146.58V790.71h71.27V632S225,600.3,261.91,600.3c22.1,0,27.31,13.08,27.31,31.68V790.71h71.2V634.13C360.42,548.3,312.48,534,289.25,534Z"/></clipPath><clipPath id="clip-path-7"><path class="cls-1" d="M77.53,449.29a33.51,33.51,0,0,0-31,21.26,35.22,35.22,0,0,0,7.27,37.62,32.82,32.82,0,0,0,36.56,7.44A34.51,34.51,0,0,0,111,483.67C111,464.68,96,449.29,77.53,449.29Z"/></clipPath><clipPath id="clip-path-8"><rect class="cls-1" x="-18383.24" y="-8947.84" width="23411.53" height="13006.41"/></clipPath><clipPath id="clip-path-9"><rect class="cls-1" x="39.58" y="533.83" width="71.4" height="256.88"/></clipPath></defs><title>twitter</title><g class="cls-3"><g class="cls-4"><rect class="cls-5" x="-67.23" y="-29.58" width="534.47" height="459.16"/></g></g><g class="cls-6"><g class="cls-7"><rect class="cls-5" x="-445.35" y="361.52" width="450.69" height="516.95"/></g></g><g class="cls-9"><g class="cls-10"><rect class="cls-5" x="-37.33" y="368" width="229.6" height="231.55"/></g></g></svg>